<svg xmlns="http://www.w3.org/2000/svg" width="65.002" height="50.557" viewBox="0 0 65.002 50.557">
  <path id="Cloud_Upload" data-name="Cloud Upload" d="M27.084,32A18.051,18.051,0,0,0,9.028,50.056,15.95,15.95,0,0,0,9.107,51.7,16.255,16.255,0,0,0,16.25,82.557H50.557a14.448,14.448,0,0,0,6.534-27.332,13.355,13.355,0,0,0,.688-4.266A13.538,13.538,0,0,0,44.237,37.417a13.38,13.38,0,0,0-3.758.53A18.04,18.04,0,0,0,27.084,32ZM14.445,50.056a12.641,12.641,0,0,1,22.942-7.324,2.7,2.7,0,0,0,3.363.88A8.13,8.13,0,0,1,51.11,55.281a2.726,2.726,0,0,0-.226,2.449,2.682,2.682,0,0,0,1.862,1.614,9.029,9.029,0,0,1-2.2,17.785H16.239a10.834,10.834,0,0,1-3.318-21.148,2.715,2.715,0,0,0,1.817-3.171,12.432,12.432,0,0,1-.3-2.765Zm19.975.79a2.7,2.7,0,0,0-3.826,0l-7.222,7.222A2.705,2.705,0,0,0,27.2,61.894l2.6-2.6v9.716a2.708,2.708,0,0,0,5.417,0V59.3l2.6,2.6a2.705,2.705,0,1,0,3.826-3.826l-7.222-7.222Z" transform="translate(0 -32)" fill="#fff"/>
</svg>
